<svg width="21" height="14" viewBox="0 0 21 14" fill="none" xmlns="http://www.w3.org/2000/svg">
<path d="M17.0471 5.83333C17.1706 5.48333 17.2941 5.13333 17.2941 4.66667C17.2941 2.1 15.0706 0 12.3529 0C10.5 0 8.77059 1.05 8.02941 2.56667C7.65882 2.45 7.16471 2.33333 6.79412 2.33333C5.06471 2.33333 3.70588 3.61667 3.70588 5.25C3.70588 5.48333 3.70588 5.71667 3.82941 5.83333C1.60588 6.18333 0 7.81667 0 9.91667C0 12.1333 1.97647 14 4.32353 14H16.6765C19.0235 14 21 12.1333 21 9.91667C21 7.81667 19.2706 6.06667 17.0471 5.83333ZM9.26471 12.7167L5.31176 8.98333L7.04118 7.35L9.26471 9.45L13.9588 5.01667L15.6882 6.65L9.26471 12.7167Z" fill="#865D1C"/>
</svg>
