<svg width="30" height="29" viewBox="0 0 30 29" fill="none" xmlns="http://www.w3.org/2000/svg">
<path d="M24.75 25.5011H3.75V4.5011H12.75V1.5011H3.75C2.95508 1.50347 2.1934 1.82031 1.6313 2.3824C1.06921 2.9445 0.752374 3.70618 0.75 4.5011V25.5011C0.752374 26.296 1.06921 27.0577 1.6313 27.6198C2.1934 28.1819 2.95508 28.4987 3.75 28.5011H24.75C25.5449 28.4987 26.3066 28.1819 26.8687 27.6198C27.4308 27.0577 27.7476 26.296 27.75 25.5011V19.5011H24.75V25.5011Z" fill="#190703"/>
<path d="M18.75 4.5011H27.75V13.5011C27.75 13.8989 27.592 14.2805 27.3107 14.5618C27.0294 14.8431 26.6478 15.0011 26.25 15.0011H20.25C19.8522 15.0011 19.4706 14.8431 19.1893 14.5618C18.908 14.2805 18.75 13.8989 18.75 13.5011V4.5011ZM29.25 1.5011H26.25L25.3935 0.00109863H21.1065L20.25 1.5011H17.25V3.0011H29.25V1.5011Z" fill="#BC1526"/>
</svg>
