<svg width="28" height="22" viewBox="0 0 28 22" fill="none" xmlns="http://www.w3.org/2000/svg">
<path d="M23.6933 2.10683C21.92 1.28016 20 0.680163 18 0.333496C17.9648 0.333997 17.9313 0.348374 17.9067 0.373496C17.6667 0.813496 17.3867 1.38683 17.2 1.82683C15.0786 1.50703 12.9213 1.50703 10.8 1.82683C10.6133 1.3735 10.3333 0.813496 10.08 0.373496C10.0667 0.34683 10.0267 0.333496 9.98666 0.333496C7.98666 0.680163 6.07999 1.28016 4.29333 2.10683C4.27999 2.10683 4.26666 2.12016 4.25333 2.1335C0.62666 7.56016 -0.37334 12.8402 0.119994 18.0668C0.119994 18.0935 0.133327 18.1202 0.159993 18.1335C2.55999 19.8935 4.86666 20.9602 7.14666 21.6668C7.18666 21.6802 7.22666 21.6668 7.23999 21.6402C7.77333 20.9068 8.25333 20.1335 8.66666 19.3202C8.69333 19.2668 8.66666 19.2135 8.61333 19.2002C7.85333 18.9068 7.13333 18.5602 6.42666 18.1602C6.37333 18.1335 6.37333 18.0535 6.41333 18.0135C6.55999 17.9068 6.70666 17.7868 6.85333 17.6802C6.87999 17.6535 6.91999 17.6535 6.94666 17.6668C11.5333 19.7602 16.48 19.7602 21.0133 17.6668C21.04 17.6535 21.08 17.6535 21.1067 17.6802C21.2533 17.8002 21.4 17.9068 21.5467 18.0268C21.6 18.0668 21.6 18.1468 21.5333 18.1735C20.84 18.5868 20.1067 18.9202 19.3467 19.2135C19.2933 19.2268 19.28 19.2935 19.2933 19.3335C19.72 20.1468 20.2 20.9202 20.72 21.6535C20.76 21.6668 20.8 21.6802 20.84 21.6668C23.1333 20.9602 25.44 19.8935 27.84 18.1335C27.8667 18.1202 27.88 18.0935 27.88 18.0668C28.4667 12.0268 26.9067 6.78683 23.7467 2.1335C23.7333 2.12016 23.72 2.10683 23.6933 2.10683ZM9.35999 14.8802C7.98666 14.8802 6.83999 13.6135 6.83999 12.0535C6.83999 10.4935 7.95999 9.22683 9.35999 9.22683C10.7733 9.22683 11.8933 10.5068 11.88 12.0535C11.88 13.6135 10.76 14.8802 9.35999 14.8802ZM18.6533 14.8802C17.28 14.8802 16.1333 13.6135 16.1333 12.0535C16.1333 10.4935 17.2533 9.22683 18.6533 9.22683C20.0667 9.22683 21.1867 10.5068 21.1733 12.0535C21.1733 13.6135 20.0667 14.8802 18.6533 14.8802Z" fill="#190703"/>
</svg>
