<svg width="145" height="161" viewBox="0 0 145 161" fill="none" xmlns="http://www.w3.org/2000/svg">
<path d="M51.9209 40.7568L19.5111 59.509L31.326 66.2295L51.9209 40.7568Z" fill="#F2F2F2"/>
<path d="M29.9165 126.522L62.3374 145.255L62.2674 131.663L29.9165 126.522Z" fill="#F2F2F2"/>
<path d="M79.9947 41.1904L112.405 59.9426L100.59 66.663L79.9947 41.1904Z" fill="#F2F2F2"/>
<path d="M115.303 102.577L115.196 65.1337L103.482 72.0282L115.303 102.577Z" fill="#F2F2F2"/>
<path d="M16.1508 102.577L16.2579 65.1337L27.9722 72.0282L16.1508 102.577Z" fill="#F2F2F2"/>
<path d="M102.05 126.621L69.5451 145.209L69.6761 131.617L102.05 126.621Z" fill="#F2F2F2"/>
<path d="M93.7609 73.8164H37.6128L65.6868 122.269L93.7609 73.8164Z" fill="#F2F2F2"/>
<path d="M59.2915 124.545L17.343 117.933L32.6266 78.1523L59.2915 124.545Z" fill="#F2F2F2"/>
<path d="M71.9736 124.653L113.922 118.041L98.6386 78.2607L71.9736 124.653Z" fill="#F2F2F2"/>
<path d="M92.3692 67.1126L65.6687 34.0902L38.8594 67.2164L92.3692 67.1126Z" fill="#F2F2F2"/>
<path d="M94.1123 21.8284C94.0594 22.1492 87.1343 45.8221 87.1343 45.8221L93.6379 49.5075C93.6379 49.5075 100.907 34.5931 103.697 30.3291C106.487 26.0651 111.113 21.9939 114.764 21.1676C118.416 20.3414 124.655 19.5876 127.406 25.1188C134.667 39.7181 117.245 42.0244 112.852 38.1C112.852 38.1 112.63 38.0823 112.549 38.2697C112.288 38.8761 111.525 40.7004 111.22 42.0055C111.17 42.217 111.256 42.4509 111.256 42.4509C111.256 42.4509 118.664 49.4943 118.843 49.7434C119.022 49.9926 119.449 50.0631 119.574 49.9738C119.699 49.8845 135.589 37.4533 141.017 33.1846C141.207 33.0348 141.248 32.4538 141.069 32.2044C140.889 31.9551 123.876 8.38171 123.491 8.21474C123.08 8.03718 122.991 7.91266 122.528 8.05609C122.09 8.19167 97.6676 19.3205 94.9831 20.5438C94.422 20.7995 94.1651 21.5075 94.1123 21.8284Z" fill="#F2F2F2"/>
<circle cx="118.363" cy="29.9998" r="4.33576" transform="rotate(9.35956 118.363 29.9998)" fill="#F2F2F2"/>
<path d="M43.1409 134.169L37.1686 130.64L31.1504 142.651L16.2592 156.173L35.7431 147.075L43.1409 134.169Z" fill="#F2F2F2"/>
<path fill-rule="evenodd" clip-rule="evenodd" d="M42.3148 47.533L50.4592 41.7522L37.6215 21.2568L12.5174 7.10955L17.0385 35.8661L32.0737 54.8019L39.8398 49.2896L23.2647 25.9371L23.1875 23.2065L25.7397 24.1804L42.3148 47.533Z" fill="#F2F2F2"/>
<path d="M90.3021 132.472L100.698 126.93L111.865 143.865L102.099 150.32L90.3021 132.472Z" fill="#F2F2F2"/>
<rect x="98.8379" y="152.268" width="19.7277" height="6.28686" rx="3.14343" transform="rotate(-33.4614 98.8379 152.268)" fill="#F2F2F2"/>
</svg>
