<svg width="16" height="16" viewBox="0 0 16 16" fill="none" xmlns="http://www.w3.org/2000/svg">
<path d="M8.86764 4.97089C8.82756 4.92828 8.78619 4.88689 8.74358 4.8468L6.85714 0L4.97073 4.8468C4.92812 4.88678 4.88681 4.92812 4.84685 4.97074L0 6.85708L4.84664 8.74351C4.88673 8.78613 4.92812 8.82751 4.97073 8.8676L6.85714 13.7143L8.74335 8.86775C8.78608 8.82766 8.82755 8.78624 8.86767 8.74354L13.7143 6.85723L8.86764 4.97089Z" fill="#190703"/>
<path d="M13.5767 11.6285C13.5567 11.6072 13.536 11.5865 13.5147 11.5665L12.5715 9.14307L11.6282 11.5665C11.6069 11.5865 11.5863 11.6071 11.5663 11.6284L9.14288 12.5716L11.5662 13.5148C11.5863 13.5361 11.6069 13.5568 11.6282 13.5769L12.5715 16.0002L13.5146 13.5769C13.5359 13.5569 13.5567 13.5362 13.5767 13.5148L16 12.5717L13.5767 11.6285Z" fill="#190703"/>
</svg>
