<svg width="10" height="14" viewBox="0 0 10 14" fill="none" xmlns="http://www.w3.org/2000/svg">
<path d="M5.5 2.5V0H0.5C0.367392 0 0.240215 0.0526784 0.146447 0.146447C0.0526785 0.240215 0 0.367392 0 0.5V6H10V0.5C10 0.367392 9.94732 0.240215 9.85355 0.146447C9.75979 0.0526784 9.63261 0 9.5 0H8.5V3.5C8.5 3.63261 8.44732 3.75979 8.35355 3.85355C8.25979 3.94732 8.13261 4 8 4C7.86739 4 7.74021 3.94732 7.64645 3.85355C7.55268 3.75979 7.5 3.63261 7.5 3.5V0H6.5V2.5C6.5 2.63261 6.44732 2.75979 6.35355 2.85355C6.25979 2.94732 6.13261 3 6 3C5.86739 3 5.74021 2.94732 5.64645 2.85355C5.55268 2.75979 5.5 2.63261 5.5 2.5ZM10 7H0V8.375C0 8.5884 0.042032 8.79971 0.123696 8.99686C0.20536 9.19401 0.325056 9.37315 0.475951 9.52405C0.626847 9.67494 0.805985 9.79464 1.00314 9.8763C1.20029 9.95797 1.4116 10 1.625 10H3.5V12.5C3.5 12.8978 3.65804 13.2794 3.93934 13.5607C4.22064 13.842 4.60218 14 5 14C5.39782 14 5.77936 13.842 6.06066 13.5607C6.34196 13.2794 6.5 12.8978 6.5 12.5V10H8.375C8.5884 10 8.79971 9.95797 8.99686 9.8763C9.19401 9.79464 9.37315 9.67494 9.52405 9.52405C9.67494 9.37315 9.79464 9.19401 9.8763 8.99686C9.95797 8.79971 10 8.5884 10 8.375V7Z" fill="#190703"/>
</svg>
