<svg width="16" height="16" viewBox="0 0 16 16" fill="none" xmlns="http://www.w3.org/2000/svg">
<path fill-rule="evenodd" clip-rule="evenodd" d="M8 16C3.5816 16 0 12.4184 0 8C0 3.5816 3.5816 0 8 0C12.4184 0 16 3.5816 16 8C16 12.4184 12.4184 16 8 16ZM5.6 6.2256H6.8848C6.9288 5.548 7.3832 5.116 8.088 5.116C8.7776 5.116 9.2368 5.5368 9.2368 6.116C9.2368 6.6576 9.0072 6.9528 8.3288 7.364C7.5744 7.8064 7.2568 8.2984 7.3064 9.108L7.312 9.496H8.5808V9.1792C8.5808 8.632 8.7832 8.3472 9.4992 7.932C10.2432 7.4888 10.6592 6.904 10.6592 6.0672C10.6584 4.864 9.6568 4 8.1584 4C6.536 4 5.644 4.9408 5.6 6.2256ZM7.9624 12.0664C8.4056 12.0664 8.7552 11.7224 8.7552 11.2904C8.7552 10.8584 8.4056 10.5184 7.9632 10.5184C7.5192 10.5184 7.164 10.8576 7.164 11.2896C7.164 11.7216 7.5192 12.0664 7.9624 12.0664Z" fill="#190703"/>
</svg>
