<svg width="15" height="16" viewBox="0 0 15 16" fill="none" xmlns="http://www.w3.org/2000/svg">
<path d="M2.26465 0.591338C2.22976 0.5915 2.19488 0.592333 2.16003 0.593838C2.0804 0.597234 2.00119 0.604296 1.9224 0.615025C1.29218 0.700869 0.698713 1.04212 0.287276 1.66721C-0.48188 2.83596 0.355838 4.73049 2.05681 4.73049C2.07356 4.73049 2.08987 4.73012 2.10628 4.72981V4.75181H3.99893C3.66274 5.75162 3.05212 6.83293 2.35993 7.92149C2.29209 8.02847 2.22655 8.13689 2.16337 8.24668L3.25331 9.36334L1.49509 9.65781C0.472338 12.3442 0.638213 15.3476 3.00374 15.3476V15.3476L3.29468 15.3496C4.03937 15.3318 4.75506 15.2153 5.21109 14.9469C5.34153 14.8701 5.44953 14.7832 5.53818 14.6838H4.52424C3.88893 14.8697 3.24924 14.4669 3.04312 13.8737C2.76324 13.0684 3.27812 12.2375 4.03896 11.9846C4.21599 11.9258 4.40133 11.8959 4.58787 11.896V11.8833H10.1607C10.1429 10.4957 10.6716 9.06693 11.6977 7.94584C12.4463 7.12784 13.0111 6.05134 13.3008 4.9819L12.0125 4.20278L13.2085 3.98696L11.8532 3.18049H11.8531L11.8531 3.18043L11.8532 3.18049L13.4822 2.90393C13.3187 1.68099 12.5809 0.7754 11.0643 0.7754C9.69303 1.04184 5.97334 1.13653 3.69928 0.924213C3.23403 0.712869 2.74468 0.589119 2.26465 0.591338ZM2.27915 1.17581C2.68968 1.17715 3.13562 1.29468 3.56812 1.50799L3.56915 1.50581C3.71499 1.65378 3.83609 1.81009 3.93415 1.97409H1.62365L1.95409 2.43596C2.28559 2.8994 2.57293 3.43565 2.61315 3.74921C2.63324 3.90599 2.60971 3.97318 2.55646 4.02534C2.50318 4.07753 2.36184 4.14643 2.05678 4.14643C0.788432 4.14643 0.279338 2.74168 0.775151 1.98831C1.10234 1.49121 1.51934 1.25934 2.00121 1.19371C2.09333 1.18129 2.1862 1.17531 2.27915 1.17581ZM2.73553 2.55809H4.18178C4.31537 3.04978 4.29603 3.59153 4.16478 4.16778H3.1424C3.20178 4.01068 3.21328 3.83734 3.1924 3.67496C3.14468 3.30268 2.96099 2.92293 2.73553 2.55809ZM5.90906 12.4673C6.11031 12.6811 6.25881 12.9457 6.32687 13.2459C6.44553 13.7689 6.4235 14.2211 6.27165 14.596C6.13021 14.9452 5.87865 15.2144 5.57509 15.4085H12.9873C13.4388 15.4085 13.765 15.2311 13.9935 14.9611C14.222 14.6911 14.3435 14.32 14.3281 13.9501C14.3225 13.8099 14.2972 13.6713 14.2528 13.5382L12.0682 13.2818L13.3812 12.6403C13.1212 12.5327 12.7987 12.4672 12.4007 12.4672H5.90906V12.4673ZM4.57568 12.4831C4.53962 12.483 4.50357 12.4846 4.46765 12.4879C4.38447 12.4954 4.30242 12.5125 4.22315 12.5388C3.75096 12.6957 3.43134 13.212 3.59471 13.6821C3.70949 14.0124 4.07431 14.2355 4.3964 14.1176L4.44499 14.0998H5.79981C5.82937 13.9011 5.82337 13.666 5.75737 13.3751C5.64143 12.8639 5.1154 12.485 4.57565 12.4832L4.57568 12.4831Z" fill="#190703"/>
</svg>
