<svg width="14" height="14" viewBox="0 0 14 14" fill="none" xmlns="http://www.w3.org/2000/svg">
<path d="M0.666578 0L0.459859 0.50835L2.93678 1.48157L3.14103 0.973223L0.666578 0ZM13.3347 0.000304044L10.859 0.973223L11.0632 1.48157L13.5389 0.508654L13.3347 0.000304044ZM7 0.0416531C6.10256 0.0416531 5.4527 0.469738 4.99779 1.0842C4.54288 1.69896 4.30769 2.50435 4.30769 3.17324C4.30769 3.56848 4.52431 4.01846 4.75641 4.35898C4.98851 4.6995 5.21751 4.92449 5.21751 4.92449L5.26393 4.9701L5.55172 5.81836H6.13351L5.10301 2.26325L7 2.8844L8.89699 2.26325L7.86649 5.81836H8.44828L8.73607 4.9701L8.78249 4.92449C8.78249 4.92449 9.01149 4.6995 9.24359 4.35898C9.47568 4.01846 9.69231 3.56848 9.69231 3.17324C9.69231 2.50435 9.45712 1.69896 9.00221 1.0842C8.5473 0.469738 7.89744 0.0416531 7 0.0416531ZM10.9611 2.8996V3.44687H13.9319V2.8996H10.9611ZM0.0680814 2.90264V3.44991H3.0389V2.90264H0.0680814ZM5.92617 3.10939L6.7153 5.81836H7.2847L8.07383 3.10939L7 3.46207L5.92617 3.10939ZM11.0632 4.86368L10.859 5.37446L13.3347 6.34738L13.5389 5.8366L11.0632 4.86368ZM2.93678 4.86672L0.459859 5.83964L0.666578 6.35042L3.14103 5.37751L2.93678 4.86672ZM5.7931 6.36563V6.79128H8.2069V6.36563H5.7931ZM5.7931 7.33855V7.7642H8.2069V7.33855H5.7931ZM4.34173 7.4176C3.50309 7.4328 2.71397 7.56961 2.27144 7.75508L0 14C2.20027 13.5713 4.45314 13.2095 6.72148 13.9726V8.31146H5.23607V7.45104C4.9916 7.42976 4.74094 7.4176 4.49646 7.4176H4.34173ZM9.50354 7.4176C9.25906 7.4176 9.0084 7.42976 8.76393 7.45104V8.31146H7.27851V13.9726C9.54686 13.2095 11.7997 13.5713 14 14L11.7286 7.75508C11.286 7.56961 10.4969 7.4328 9.65827 7.4176H9.50354Z" fill="#190703"/>
</svg>
