<svg width="18" height="14" viewBox="0 0 18 14" fill="none" xmlns="http://www.w3.org/2000/svg">
<path d="M0 14V11.55C0 11.0542 0.119455 10.5986 0.358364 10.1833C0.597273 9.76792 0.914182 9.45059 1.30909 9.23126C2.15455 8.77918 3.01364 8.44026 3.88636 8.21451C4.75909 7.98876 5.64545 7.87559 6.54545 7.87501C7.44545 7.87443 8.33182 7.98759 9.20455 8.21451C10.0773 8.44143 10.9364 8.78034 11.7818 9.23126C12.1773 9.45001 12.4945 9.76734 12.7334 10.1833C12.9723 10.5992 13.0915 11.0548 13.0909 11.55V14H0ZM14.7273 14V11.375C14.7273 10.7333 14.5604 10.117 14.2265 9.52613C13.8927 8.93522 13.4187 8.42859 12.8045 8.00626C13.5 8.09376 14.1545 8.24338 14.7682 8.45513C15.3818 8.66688 15.9545 8.92559 16.4864 9.23126C16.9773 9.52292 17.3523 9.84726 17.6114 10.2043C17.8705 10.5613 18 10.9515 18 11.375V14H14.7273ZM6.54545 7.00001C5.64545 7.00001 4.875 6.6573 4.23409 5.97189C3.59318 5.28647 3.27273 4.46252 3.27273 3.50002C3.27273 2.53752 3.59318 1.71356 4.23409 1.02815C4.875 0.34273 5.64545 2.24356e-05 6.54545 2.24356e-05C7.44545 2.24356e-05 8.21591 0.34273 8.85682 1.02815C9.49773 1.71356 9.81818 2.53752 9.81818 3.50002C9.81818 4.46252 9.49773 5.28647 8.85682 5.97189C8.21591 6.6573 7.44545 7.00001 6.54545 7.00001ZM14.7273 3.50002C14.7273 4.46252 14.4068 5.28647 13.7659 5.97189C13.125 6.6573 12.3545 7.00001 11.4545 7.00001C11.3045 7.00001 11.1136 6.98193 10.8818 6.94576C10.65 6.90959 10.4591 6.86935 10.3091 6.82501C10.6773 6.35835 10.9604 5.84064 11.1584 5.27189C11.3564 4.70314 11.4551 4.11252 11.4545 3.50002C11.454 2.88752 11.3553 2.29689 11.1584 1.72814C10.9615 1.1594 10.6784 0.641688 10.3091 0.175022C10.5 0.102105 10.6909 0.0545642 10.8818 0.0323975C11.0727 0.0102309 11.2636 -0.000560897 11.4545 2.24356e-05C12.3545 2.24356e-05 13.125 0.34273 13.7659 1.02815C14.4068 1.71356 14.7273 2.53752 14.7273 3.50002Z" fill="#190703"/>
</svg>
