<svg width="13" height="14" viewBox="0 0 13 14" fill="none" xmlns="http://www.w3.org/2000/svg">
<mask id="path-1-inside-1_435_3315" fill="white">
<path d="M11.9889 13.5L7.43889 8.95C7.07778 9.23889 6.6625 9.46759 6.19306 9.63611C5.72361 9.80463 5.22407 9.88889 4.69444 9.88889C3.38241 9.88889 2.27211 9.43437 1.36356 8.52533C0.455 7.6163 0.000481864 6.506 3.82128e-07 5.19444C-0.000481099 3.88289 0.454037 2.77259 1.36356 1.86356C2.27307 0.954519 3.38337 0.5 4.69444 0.5C6.00552 0.5 7.11606 0.954519 8.02606 1.86356C8.93606 2.77259 9.39033 3.88289 9.38889 5.19444C9.38889 5.72407 9.30463 6.22361 9.13611 6.69306C8.96759 7.1625 8.73889 7.57778 8.45 7.93889L13 12.4889L11.9889 13.5ZM4.69444 8.44444C5.59722 8.44444 6.3647 8.12859 6.99689 7.49689C7.62907 6.86518 7.94493 6.0977 7.94445 5.19444C7.94396 4.29119 7.62811 3.52394 6.99689 2.89272C6.36567 2.2615 5.59819 1.94541 4.69444 1.94444C3.7907 1.94348 3.02346 2.25957 2.39272 2.89272C1.76198 3.52587 1.44589 4.29311 1.44444 5.19444C1.443 6.09578 1.75909 6.86326 2.39272 7.49689C3.02635 8.13052 3.79359 8.44637 4.69444 8.44444Z"/>
</mask>
<path d="M11.9889 13.5L4.91782 20.5711L11.9889 27.6421L19.06 20.5711L11.9889 13.5ZM7.43889 8.95L14.51 1.87893L8.18105 -4.44998L1.19194 1.14131L7.43889 8.95ZM4.69444 9.88889V19.8889V9.88889ZM9.38889 5.19444L-0.611111 5.18343V5.19444H9.38889ZM8.45 7.93889L0.641312 1.69194L-4.94998 8.68105L1.37893 15.01L8.45 7.93889ZM13 12.4889L20.0711 19.56L27.1421 12.4889L20.0711 5.41782L13 12.4889ZM4.69444 8.44444V-1.55556H4.68375L4.67307 -1.55553L4.69444 8.44444ZM19.06 6.42893L14.51 1.87893L0.367822 16.0211L4.91782 20.5711L19.06 6.42893ZM1.19194 1.14131C1.75717 0.689126 2.32749 0.398956 2.81441 0.224164L9.5717 19.0481C10.9975 18.5362 12.3984 17.7887 13.6858 16.7587L1.19194 1.14131ZM2.81441 0.224164C3.49443 -0.0199459 4.14413 -0.111111 4.69444 -0.111111V19.8889C6.30402 19.8889 7.95279 19.6292 9.5717 19.0481L2.81441 0.224164ZM4.69444 -0.111111C5.21548 -0.111111 5.91077 -0.0158249 6.66621 0.293426C7.42577 0.604363 8.01965 1.03907 8.4365 1.45614L-5.70938 15.5945C-2.88191 18.4235 0.791361 19.8889 4.69444 19.8889V-0.111111ZM8.4365 1.45614C8.85218 1.87204 9.28561 2.46454 9.59582 3.22232C9.90439 3.97607 9.99981 4.6701 10 5.19077L-10 5.19812C-9.99857 9.0988 -8.53384 12.7686 -5.70938 15.5945L8.4365 1.45614ZM10 5.19077C10.0002 5.71367 9.90469 6.41032 9.5951 7.16657C9.2839 7.92677 8.84905 8.52042 8.43275 8.9365L-5.70564 -5.20938C-8.53414 -2.38238 -10.0014 1.29157 -10 5.19812L10 5.19077ZM8.43275 8.9365C8.01762 9.35141 7.42536 9.78499 6.66693 10.0955C5.91236 10.4044 5.21698 10.5 4.69444 10.5V-9.5C0.790295 -9.5 -2.88016 -8.03337 -5.70564 -5.20938L8.43275 8.9365ZM4.69444 10.5C4.17188 10.5 3.47685 10.4044 2.72284 10.0958C1.96503 9.78559 1.37336 9.35256 0.958732 8.93837L15.0934 -5.21125C12.2681 -8.03351 8.5985 -9.5 4.69444 -9.5V10.5ZM0.958732 8.93837C0.541798 8.52187 0.10585 7.92708 -0.206014 7.16485C-0.516279 6.40654 -0.611682 5.70788 -0.611105 5.18343L19.3889 5.20546C19.3932 1.29475 17.9248 -2.3828 15.0934 -5.21125L0.958732 8.93837ZM-0.611111 5.19444C-0.611111 4.64413 -0.519946 3.99443 -0.275836 3.31441L18.5481 10.0717C19.1292 8.45279 19.3889 6.80402 19.3889 5.19444H-0.611111ZM-0.275836 3.31441C-0.101043 2.82748 0.189127 2.25717 0.641312 1.69194L16.2587 14.1858C17.2887 12.8984 18.0362 11.4975 18.5481 10.0717L-0.275836 3.31441ZM1.37893 15.01L5.92893 19.56L20.0711 5.41782L15.5211 0.867822L1.37893 15.01ZM5.92893 5.41782L4.91782 6.42893L19.06 20.5711L20.0711 19.56L5.92893 5.41782ZM4.69444 18.4444C8.21782 18.4444 11.5366 17.0973 14.0653 14.5706L-0.0714842 0.423128C0.473439 -0.121381 1.21355 -0.658099 2.14139 -1.03995C3.06723 -1.42097 3.95564 -1.55556 4.69444 -1.55556V18.4444ZM14.0653 14.5706C16.5982 12.0396 17.9463 8.71579 17.9444 5.18911L-2.05555 5.19978C-2.05595 4.46033 -1.92161 3.57003 -1.53958 2.64175C-1.15668 1.71135 -0.618071 0.969298 -0.0714842 0.423128L14.0653 14.5706ZM17.9444 5.18911C17.9426 1.67082 16.598 -1.64827 14.068 -4.17835L-0.0741784 9.96379C-0.620717 9.41725 -1.15795 8.67609 -1.53989 7.74834C-1.92085 6.82292 -2.05516 5.93593 -2.05555 5.19978L17.9444 5.18911ZM14.068 -4.17835C11.5381 -6.70822 8.22046 -8.0518 4.7051 -8.05555L4.68379 11.9444C3.94924 11.9437 3.06376 11.8093 2.13963 11.4287C1.21307 11.0471 0.472392 10.5104 -0.0741784 9.96379L14.068 -4.17835ZM4.7051 -8.05555C1.17253 -8.05931 -2.15841 -6.70793 -4.6918 -4.16486L9.47725 9.95031C8.92957 10.5001 8.18482 11.0419 7.25046 11.4269C6.31835 11.8109 5.4248 11.9452 4.68379 11.9444L4.7051 -8.05555ZM-4.6918 -4.16486C-7.20354 -1.64354 -8.54991 1.66239 -8.55554 5.17842L11.4444 5.21047C11.4432 5.94827 11.3076 6.83237 10.9287 7.75226C10.549 8.67383 10.0166 9.40888 9.47725 9.95031L-4.6918 -4.16486ZM-8.55554 5.17842C-8.56122 8.71995 -7.20362 12.0427 -4.67835 14.568L9.46379 0.425821C10.0054 0.967396 10.5434 1.70666 10.9269 2.63783C11.3099 3.56782 11.4456 4.46284 11.4444 5.21047L-8.55554 5.17842ZM-4.67835 14.568C-2.15288 17.0934 1.17134 18.452 4.71582 18.4444L4.67307 -1.55553C5.42231 -1.55713 6.31885 -1.42147 7.25014 -1.03808C8.1825 -0.654256 8.92225 -0.115721 9.46379 0.425821L-4.67835 14.568Z" fill="#190703" mask="url(#path-1-inside-1_435_3315)"/>
</svg>
