<svg width="15" height="16" viewBox="0 0 15 16" fill="none" xmlns="http://www.w3.org/2000/svg">
<path d="M3.33594 6.72062L0.0375 11.5922C-0.05875 11.7484 0.040625 11.9516 0.222813 11.9716L6.73094 12.6613L3.33594 6.72062ZM0.231562 9.85719L2.58437 6.03375L0.189375 4.59688C0.105937 4.54688 0 4.60687 0 4.70406V9.79187C0 9.91781 0.165312 9.96469 0.231562 9.85719ZM0.570312 13.2375L6.64531 15.9769C6.81094 16.0534 7 15.9322 7 15.75V13.6978L0.639063 13.0009C0.5 12.9853 0.444375 13.1756 0.570312 13.2375ZM3.10844 5.18188L5.60625 0.715C5.74187 0.494375 5.49406 0.238437 5.26937 0.366875L0.556562 3.44844C0.479375 3.49906 0.481875 3.61281 0.560625 3.66031L3.10844 5.18188ZM7.5 5.5H10.9128L7.92594 0.238125C7.82813 0.079375 7.66406 0 7.5 0C7.33594 0 7.17187 0.079375 7.07406 0.238125L4.08719 5.5H7.5ZM14.8106 4.59688L12.4156 6.03406L14.7684 9.8575C14.8344 9.965 15 9.91812 15 9.79187V4.70406C15 4.60687 14.8941 4.54688 14.8106 4.59688ZM11.8916 5.18188L14.4394 3.66C14.5184 3.6125 14.5206 3.49875 14.4434 3.44812L9.73063 0.366875C9.50594 0.238437 9.25813 0.494375 9.39375 0.715L11.8916 5.18188ZM14.3609 13.0009L8 13.6975V15.7497C8 15.9322 8.18906 16.0531 8.35469 15.9766L14.4297 13.2372C14.5556 13.1756 14.5 12.9853 14.3609 13.0009ZM11.6641 6.72062L8.26937 12.6613L14.7775 11.9716C14.9597 11.9512 15.0591 11.7484 14.9628 11.5922L11.6641 6.72062ZM7.5 6.5H4.36156L7.5 11.9922L10.6384 6.5H7.5Z" fill="#190703"/>
</svg>
