<svg width="28" height="31" viewBox="0 0 28 31" fill="none" xmlns="http://www.w3.org/2000/svg">
<path d="M10.1014 7.78223L3.9126 11.363L6.1687 12.6463L10.1014 7.78223Z" fill="#BC1526"/>
<path d="M5.89962 24.1599L12.0905 27.737L12.0771 25.1415L5.89962 24.1599Z" fill="#BC1526"/>
<path d="M15.4622 7.86523L21.651 11.446L19.3949 12.7293L15.4622 7.86523Z" fill="#BC1526"/>
<path d="M22.2045 19.5873L22.184 12.4373L19.9472 13.7538L22.2045 19.5873Z" fill="#BC1526"/>
<path d="M3.27097 19.5873L3.29142 12.4373L5.52831 13.7538L3.27097 19.5873Z" fill="#BC1526"/>
<path d="M19.6736 24.1786L13.4668 27.728L13.4918 25.1326L19.6736 24.1786Z" fill="#BC1526"/>
<path d="M18.0909 14.0947H7.3692L12.73 23.3468L18.0909 14.0947Z" fill="#BC1526"/>
<path d="M11.5088 23.7817L3.49863 22.5191L6.41708 14.9229L11.5088 23.7817Z" fill="#BC1526"/>
<path d="M13.9305 23.8022L21.9408 22.5396L19.0223 14.9434L13.9305 23.8022Z" fill="#BC1526"/>
<path d="M17.8251 12.8152L12.7266 6.50949L7.60724 12.8351L17.8251 12.8152Z" fill="#BC1526"/>
<path d="M18.1581 4.16832C18.148 4.22959 16.8256 8.75001 16.8256 8.75001L18.0675 9.45375C18.0675 9.45375 19.4555 6.60579 19.9883 5.79157C20.521 4.97735 21.4043 4.19994 22.1016 4.04216C22.7989 3.88437 23.9902 3.74044 24.5156 4.79665C25.9021 7.58443 22.5754 8.02482 21.7365 7.27544C21.7365 7.27544 21.694 7.27207 21.6786 7.30785C21.6288 7.42365 21.4832 7.772 21.4248 8.02121C21.4154 8.06161 21.4318 8.10627 21.4318 8.10627C21.4318 8.10627 22.8464 9.45123 22.8805 9.4988C22.9146 9.54638 22.9963 9.55985 23.0201 9.54279C23.0438 9.52573 26.0783 7.15196 27.1146 6.33684C27.151 6.30823 27.1589 6.19729 27.1245 6.14967C27.0902 6.10205 23.8416 1.60064 23.768 1.56876C23.6896 1.53485 23.6726 1.51107 23.5842 1.53846C23.5006 1.56435 18.837 3.68943 18.3244 3.92303C18.2172 3.97185 18.1682 4.10705 18.1581 4.16832Z" fill="#BC1526"/>
<circle cx="22.7886" cy="5.7289" r="0.827929" transform="rotate(9.35956 22.7886 5.7289)" fill="#BC1526"/>
<path d="M8.42481 25.6197L7.28437 24.9458L6.13517 27.2393L3.29165 29.8215L7.01217 28.0841L8.42481 25.6197Z" fill="#BC1526"/>
<path fill-rule="evenodd" clip-rule="evenodd" d="M8.26711 9.07691L9.82231 7.97306L7.37089 4.05938L2.57718 1.35792L3.4405 6.84908L6.31153 10.4649L7.79451 9.41235L4.62943 4.9531L4.6147 4.43169L5.10204 4.61766L8.26711 9.07691Z" fill="#BC1526"/>
<path d="M17.4305 25.2959L19.4156 24.2377L21.5479 27.4716L19.683 28.7041L17.4305 25.2959Z" fill="#BC1526"/>
<rect x="19.0604" y="29.0762" width="3.76708" height="1.2005" rx="0.600249" transform="rotate(-33.4614 19.0604 29.0762)" fill="#BC1526"/>
</svg>
