<svg width="20" height="19" viewBox="0 0 20 19" fill="none" xmlns="http://www.w3.org/2000/svg">
<mask id="path-1-inside-1_545_4594" fill="white">
<path d="M17.609 19L10.926 12.35C10.3957 12.7722 9.78571 13.1065 9.0962 13.3528C8.40669 13.5991 7.67298 13.7222 6.89508 13.7222C4.96799 13.7222 3.33722 13.0579 2.00276 11.7293C0.668293 10.4007 0.000707749 8.778 5.6126e-07 6.86111C-0.000706626 4.94422 0.666878 3.32148 2.00276 1.99289C3.33863 0.664296 4.96941 0 6.89508 0C8.82075 0 10.4519 0.664296 11.7885 1.99289C13.125 3.32148 13.7923 4.94422 13.7902 6.86111C13.7902 7.63519 13.6664 8.36528 13.4189 9.05139C13.1714 9.7375 12.8355 10.3444 12.4111 10.8722L19.0941 17.5222L17.609 19ZM6.89508 11.6111C8.22105 11.6111 9.34831 11.1495 10.2768 10.2262C11.2054 9.30296 11.6693 8.18126 11.6686 6.86111C11.6679 5.54096 11.204 4.41961 10.2768 3.49706C9.34972 2.5745 8.22247 2.11252 6.89508 2.11111C5.56769 2.1097 4.44078 2.57169 3.51437 3.49706C2.58795 4.42243 2.12368 5.54378 2.12156 6.86111C2.11944 8.17844 2.58371 9.30015 3.51437 10.2262C4.44503 11.1523 5.57193 11.6139 6.89508 11.6111Z"/>
</mask>
<path d="M17.609 19L10.5554 26.0885L17.609 33.1073L24.6626 26.0885L17.609 19ZM10.926 12.35L17.9796 5.26149L11.6662 -1.02086L4.69791 4.52629L10.926 12.35ZM6.89508 13.7222V23.7222V13.7222ZM13.7902 6.86111L3.79015 6.85004V6.86111H13.7902ZM12.4111 10.8722L4.61753 4.60647L-1.01818 11.6164L5.35755 17.9607L12.4111 10.8722ZM19.0941 17.5222L26.1476 24.6107L33.2712 17.5222L26.1476 10.4337L19.0941 17.5222ZM6.89508 11.6111V1.61111H6.88444L6.8738 1.61113L6.89508 11.6111ZM24.6626 11.9115L17.9796 5.26149L3.87246 19.4385L10.5554 26.0885L24.6626 11.9115ZM4.69791 4.52629C5.09442 4.21066 5.46884 4.02966 5.73231 3.93555L12.4601 22.77C14.1026 22.1833 15.6969 21.3338 17.1542 20.1737L4.69791 4.52629ZM5.73231 3.93555C6.18824 3.77268 6.59863 3.72222 6.89508 3.72222V23.7222C8.74733 23.7222 10.6251 23.4255 12.4601 22.77L5.73231 3.93555ZM6.89508 3.72222C7.10237 3.72222 7.50814 3.76286 7.9992 3.96289C8.49482 4.16478 8.85205 4.43744 9.05822 4.6427L-5.05271 18.816C-1.79568 22.0587 2.39267 23.7222 6.89508 23.7222V3.72222ZM9.05822 4.6427C9.26295 4.84652 9.54136 5.20604 9.74921 5.71127C9.95559 6.21293 9.99992 6.63317 10 6.85742L-10 6.8648C-9.99833 11.3866 -8.30882 15.5742 -5.05271 18.816L9.05822 4.6427ZM10 6.85742C10.0001 7.08391 9.95556 7.50678 9.74815 8.01095C9.5393 8.51861 9.25957 8.87927 9.05447 9.08326L-5.04895 -5.09748C-8.30956 -1.85466 -10.0017 2.33709 -10 6.8648L10 6.85742ZM9.05447 9.08326C8.85025 9.28637 8.49476 9.5579 8.00026 9.75933C7.51007 9.95901 7.10409 10 6.89508 10V-10C2.39205 -10 -1.79349 -8.3352 -5.04895 -5.09748L9.05447 9.08326ZM6.89508 10C6.68603 10 6.28044 9.959 5.79086 9.75962C5.29704 9.5585 4.94222 9.28751 4.73863 9.08513L18.8383 -5.09935C15.5828 -8.33534 11.398 -10 6.89508 -10V10ZM4.73863 9.08513C4.533 8.88072 4.25219 8.51891 4.04262 8.00923C3.83447 7.50298 3.78991 7.0781 3.79016 6.85004L23.7901 6.87218C23.7952 2.34027 22.1021 -1.85508 18.8383 -5.09935L4.73863 9.08513ZM3.79015 6.86111C3.79015 6.54961 3.84365 6.12531 4.01226 5.65794L22.8255 12.4448C23.4891 10.6052 23.7902 8.72076 23.7902 6.86111H3.79015ZM4.01226 5.65794C4.11098 5.38429 4.29757 5.00445 4.61753 4.60647L20.2047 17.138C21.3733 15.6844 22.2318 14.0907 22.8255 12.4448L4.01226 5.65794ZM5.35755 17.9607L12.0405 24.6107L26.1476 10.4337L19.4647 3.78372L5.35755 17.9607ZM12.0405 10.4337L10.5554 11.9115L24.6626 26.0885L26.1476 24.6107L12.0405 10.4337ZM6.89508 21.6111C10.8258 21.6111 14.4991 20.13 17.3277 17.3174L3.22596 3.13503C3.62496 2.7383 4.20099 2.3156 4.94531 2.0108C5.68714 1.707 6.37416 1.61111 6.89508 1.61111V21.6111ZM17.3277 17.3174C20.1626 14.4986 21.6707 10.8152 21.6686 6.85575L1.66859 6.86647C1.66831 6.32915 1.76796 5.62594 2.08032 4.87066C2.39338 4.11373 2.82559 3.53312 3.22596 3.13503L17.3277 17.3174ZM21.6686 6.85575C21.6665 2.9047 20.162 -0.773811 17.3304 -3.59145L3.22326 10.5856C2.82271 10.187 2.39176 9.60718 2.07969 8.85285C1.76839 8.10039 1.66888 7.40048 1.66859 6.86647L21.6686 6.85575ZM17.3304 -3.59145C14.501 -6.40696 10.8289 -7.88472 6.90568 -7.88888L6.88447 12.1111C6.36801 12.1106 5.68402 12.0151 4.94389 11.7117C4.20086 11.4072 3.62414 10.9845 3.22326 10.5856L17.3304 -3.59145ZM6.90568 -7.88888C2.96534 -7.89306 -0.71989 -6.40762 -3.55271 -3.578L10.5814 10.5721C10.1793 10.9738 9.59842 11.4014 8.84755 11.7092C8.0994 12.0159 7.40736 12.1117 6.88447 12.1111L6.90568 -7.88888ZM-3.55271 -3.578C-6.3657 -0.768185 -7.87207 2.89717 -7.87842 6.84501L12.1215 6.87722C12.1207 7.41332 12.02 8.11054 11.7108 8.85745C11.401 9.60556 10.9749 10.1791 10.5814 10.5721L-3.55271 -3.578ZM-7.87842 6.84501C-7.88482 10.8185 -6.36705 14.5008 -3.53922 17.3147L10.568 3.13772C10.963 3.53078 11.3944 4.10838 11.708 4.86606C12.0213 5.62305 12.1224 6.33122 12.1215 6.87722L-7.87842 6.84501ZM-3.53922 17.3147C-0.712995 20.127 2.96548 21.6195 6.91635 21.6111L6.8738 1.61113C7.40556 1.61 8.10092 1.70719 8.84826 2.01333C9.59714 2.3201 10.1727 2.74437 10.568 3.13772L-3.53922 17.3147Z" fill="#865D1C" mask="url(#path-1-inside-1_545_4594)"/>
</svg>
