<svg width="16" height="18" viewBox="0 0 16 18" fill="none" xmlns="http://www.w3.org/2000/svg">
<path d="M5.74207 4.50732L2.15778 6.58118L3.46442 7.32441L5.74207 4.50732Z" fill="#190703"/>
<path d="M3.30856 13.9927L6.89408 16.0645L6.88633 14.5613L3.30856 13.9927Z" fill="#190703"/>
<path d="M8.84686 4.55518L12.4312 6.62903L11.1245 7.37226L8.84686 4.55518Z" fill="#190703"/>
<path d="M12.7517 11.3444L12.7399 7.20335L11.4444 7.96583L12.7517 11.3444Z" fill="#190703"/>
<path d="M1.78616 11.3444L1.79801 7.20335L3.09352 7.96583L1.78616 11.3444Z" fill="#190703"/>
<path d="M11.286 14.0032L7.69121 16.0589L7.70569 14.5557L11.286 14.0032Z" fill="#190703"/>
<path d="M10.3693 8.16357H4.15973L7.26452 13.522L10.3693 8.16357Z" fill="#190703"/>
<path d="M6.55723 13.7738L1.91803 13.0425L3.60828 8.64307L6.55723 13.7738Z" fill="#190703"/>
<path d="M7.9598 13.786L12.599 13.0547L10.9087 8.65527L7.9598 13.786Z" fill="#190703"/>
<path d="M10.2154 7.42205L7.26249 3.77L4.29758 7.43353L10.2154 7.42205Z" fill="#190703"/>
<path d="M10.4082 2.41428C10.4024 2.44976 9.63649 5.06781 9.63649 5.06781L10.3557 5.47539C10.3557 5.47539 11.1596 3.82597 11.4682 3.3544C11.7767 2.88284 12.2883 2.43259 12.6922 2.34121C13.096 2.24983 13.786 2.16647 14.0902 2.77818C14.8932 4.39276 12.9666 4.64781 12.4807 4.2138C12.4807 4.2138 12.4561 4.21185 12.4472 4.23257C12.4183 4.29964 12.334 4.50139 12.3002 4.64572C12.2947 4.66912 12.3042 4.69498 12.3042 4.69498C12.3042 4.69498 13.1235 5.47393 13.1432 5.50149C13.163 5.52904 13.2103 5.53684 13.2241 5.52696C13.2379 5.51708 14.9953 4.14229 15.5955 3.6702C15.6166 3.65363 15.6211 3.58938 15.6012 3.5618C15.5813 3.53422 13.6999 0.927177 13.6572 0.908712C13.6119 0.889075 13.602 0.875304 13.5508 0.891166C13.5024 0.906161 10.8014 2.13692 10.5045 2.27221C10.4425 2.30049 10.4141 2.3788 10.4082 2.41428Z" fill="#190703"/>
<circle cx="13.09" cy="3.3177" r="0.479504" transform="rotate(9.35956 13.09 3.3177)" fill="#190703"/>
<path d="M4.77112 14.8384L4.11062 14.448L3.44505 15.7763L1.79819 17.2718L3.95297 16.2656L4.77112 14.8384Z" fill="#190703"/>
<path fill-rule="evenodd" clip-rule="evenodd" d="M4.67971 5.25684L5.58043 4.61753L4.16066 2.35088L1.38433 0.786296L1.88433 3.96656L3.54712 6.06072L4.406 5.45111L2.57294 2.86853L2.5644 2.56655L2.84665 2.67426L4.67971 5.25684Z" fill="#190703"/>
<path d="M9.98682 14.6504L11.1365 14.0375L12.3715 15.9105L11.2914 16.6243L9.98682 14.6504Z" fill="#190703"/>
<rect x="10.9308" y="16.8398" width="2.18174" height="0.695281" rx="0.347641" transform="rotate(-33.4614 10.9308 16.8398)" fill="#190703"/>
</svg>
